# xmcd CD database file
#
# Track frame offsets:
#	150
#	22315
#	44585
#
# Disc length: 892 seconds
#
# Revision: 0
# Processed by: cddbd v1.5PL3 Copyright (c) Steve Scherf et al.
# Submitted via: CDex 1.40Release
#
DISCID=26037a03
DTITLE=BUCK-TICK - 幻想の花（通常盤）
DYEAR=2003
DGENRE=Ballad
TTITLE0=幻想の花
TTITLE1=ノクターン -Rain Song-
TTITLE2=幻想の花 (Live Version)
EXTD=YEAR: 2003 ID3G: 116
EXTT0=
EXTT1=
EXTT2=
PLAYORDER=
